<svg width="96" height="66" viewBox="0 0 96 66" fill="none" xmlns="http://www.w3.org/2000/svg">
<path d="M19.9441 65.912C17.0353 63.6595 15.9772 60.257 17.0027 56.7417C17.7417 54.2085 19.2191 52.1091 20.86 50.0931C21.3015 49.5507 21.7395 49.0046 22.0085 48.3517C22.5208 47.1085 22.2278 46.033 21.1662 45.1978C19.9745 44.2603 18.5223 44.0581 17.0965 43.774C14.3008 43.217 11.5569 42.4876 9.06956 41.0647C5.47808 39.0103 3.36423 35.934 2.92575 31.8572C2.31694 26.1969 4.49775 21.7011 9.15141 18.4196C11.8265 16.5332 14.9522 15.6186 18.1263 14.8856C21.0024 14.2214 23.922 13.7455 26.7647 12.9372C28.4683 12.4528 30.0714 11.7605 31.5673 10.8115C34.0129 9.26008 34.6674 6.98355 34.3264 4.30334C34.1467 2.89119 33.6987 1.55291 33.0274 0.289959C32.9829 0.206292 32.9535 0.118799 33.0589 0C33.4062 0.0654707 33.5395 0.395612 33.7181 0.632131C35.8503 3.4564 36.7042 6.58005 35.8559 10.0534C35.3956 11.9378 34.2042 13.3516 32.6621 14.5001C30.578 16.0521 28.2136 17.0761 25.8171 18.045C22.5157 19.3798 19.129 20.532 16.1165 22.4858C14.0422 23.8311 12.5028 25.5751 11.7951 27.958C10.4282 32.5603 12.1994 36.0841 16.7962 37.8297C18.7932 38.5881 20.938 38.852 22.9667 39.5143C24.8208 40.1196 26.6826 40.7108 28.1242 42.1158C30.0671 44.0095 30.2151 46.7198 28.5283 48.8497C27.4589 50.2001 26.0681 51.1985 24.7883 52.321C23.1315 53.7741 21.605 55.3447 20.4479 57.2273C18.8141 59.8852 18.6027 62.6154 20.049 65.4224C20.2165 65.7476 20.2092 65.7513 19.9441 65.912Z" fill="#FFA800"/>
<path d="M24.7535 22.503C22.7638 23.3595 20.8315 24.2098 19.1291 25.4801C16.6666 27.3176 15.4345 30.4778 16.1535 33.1437C16.6184 34.8679 17.8418 35.9873 19.2953 36.9194C19.5045 37.0536 19.7881 37.0901 19.9126 37.3376C19.8707 37.4729 19.7771 37.4517 19.6902 37.4235C13.6444 35.4566 13.6088 29.2023 16.4149 25.9599C18.1293 23.9789 20.4511 22.885 22.8052 21.8685C25.065 20.8927 27.402 20.0962 29.6349 19.0566C31.6028 18.1404 33.4707 17.0912 34.8371 15.343C35.4415 14.5696 35.7232 13.6737 36.0062 12.75C36.2008 13.147 36.2212 13.5097 36.1316 14.0451C35.81 15.9673 34.7262 17.3979 33.1676 18.5194C30.8616 20.1786 28.1857 21.0992 25.5939 22.1867C25.3348 22.2954 25.0675 22.3853 24.7535 22.503Z" fill="#FFA800"/>
<path d="M1.1635 37.1392C-0.936043 32.5781 0.0810361 27.8736 2.03755 25.3008C2.15933 25.5666 1.98854 25.7476 1.91272 25.942C0.162916 30.429 0.480108 34.7046 3.34228 38.6735C4.89993 40.8334 7.1746 42.0394 9.6143 42.9854C12.0297 43.922 14.5572 44.4394 17.0904 44.9352C17.8979 45.0933 18.6982 45.2682 19.4467 45.6232C20.8724 46.2995 21.2876 47.5222 20.5395 48.8996C20.333 49.2799 20.1287 49.6744 19.7283 49.9237C19.5264 49.6836 19.705 49.4962 19.7534 49.3191C20.1338 47.9266 19.7086 47.0287 18.3395 46.4929C17.2425 46.0637 16.0655 45.9465 14.9174 45.7164C11.2109 44.9736 7.60372 43.9857 4.59042 41.5629C3.10453 40.3682 2.00353 38.8859 1.1635 37.1392Z" fill="#FFA800"/>
<path d="M9.92217 34.0991C9.92217 32.7258 10.2288 31.4991 10.8422 30.4191C11.4688 29.3258 12.3155 28.4791 13.3822 27.8791C14.4622 27.2658 15.6688 26.9591 17.0022 26.9591C18.5622 26.9591 19.9288 27.3591 21.1022 28.1591C22.2755 28.9591 23.0955 30.0658 23.5622 31.4791H20.3422C20.0222 30.8125 19.5688 30.3125 18.9822 29.9791C18.4088 29.6458 17.7422 29.4791 16.9822 29.4791C16.1688 29.4791 15.4422 29.6725 14.8022 30.0591C14.1755 30.4325 13.6822 30.9658 13.3222 31.6591C12.9755 32.3525 12.8022 33.1658 12.8022 34.0991C12.8022 35.0191 12.9755 35.8325 13.3222 36.5391C13.6822 37.2325 14.1755 37.7725 14.8022 38.1591C15.4422 38.5325 16.1688 38.7191 16.9822 38.7191C17.7422 38.7191 18.4088 38.5525 18.9822 38.2191C19.5688 37.8725 20.0222 37.3658 20.3422 36.6991H23.5622C23.0955 38.1258 22.2755 39.2391 21.1022 40.0391C19.9422 40.8258 18.5755 41.2191 17.0022 41.2191C15.6688 41.2191 14.4622 40.9191 13.3822 40.3191C12.3155 39.7058 11.4688 38.8591 10.8422 37.7791C10.2288 36.6991 9.92217 35.4725 9.92217 34.0991ZM30.8737 41.2791C29.8071 41.2791 28.8471 41.0458 27.9937 40.5791C27.1404 40.0991 26.4671 39.4258 25.9737 38.5591C25.4937 37.6925 25.2537 36.6925 25.2537 35.5591C25.2537 34.4258 25.5004 33.4258 25.9937 32.5591C26.5004 31.6925 27.1871 31.0258 28.0537 30.5591C28.9204 30.0791 29.8871 29.8391 30.9537 29.8391C32.0204 29.8391 32.9871 30.0791 33.8537 30.5591C34.7204 31.0258 35.4004 31.6925 35.8937 32.5591C36.4004 33.4258 36.6537 34.4258 36.6537 35.5591C36.6537 36.6925 36.3937 37.6925 35.8737 38.5591C35.3671 39.4258 34.6737 40.0991 33.7937 40.5791C32.9271 41.0458 31.9537 41.2791 30.8737 41.2791ZM30.8737 38.8391C31.3804 38.8391 31.8537 38.7191 32.2937 38.4791C32.7471 38.2258 33.1071 37.8525 33.3737 37.3591C33.6404 36.8658 33.7737 36.2658 33.7737 35.5591C33.7737 34.5058 33.4937 33.6991 32.9337 33.1391C32.3871 32.5658 31.7137 32.2791 30.9137 32.2791C30.1137 32.2791 29.4404 32.5658 28.8937 33.1391C28.3604 33.6991 28.0937 34.5058 28.0937 35.5591C28.0937 36.6125 28.3537 37.4258 28.8737 37.9991C29.4071 38.5591 30.0737 38.8391 30.8737 38.8391ZM49.1676 30.0191V41.0991H46.3476V39.6991C45.9876 40.1791 45.5143 40.5591 44.9276 40.8391C44.3543 41.1058 43.7276 41.2391 43.0476 41.2391C42.181 41.2391 41.4143 41.0591 40.7476 40.6991C40.081 40.3258 39.5543 39.7858 39.1676 39.0791C38.7943 38.3591 38.6076 37.5058 38.6076 36.5191V30.0191H41.4076V36.1191C41.4076 36.9991 41.6276 37.6791 42.0676 38.1591C42.5076 38.6258 43.1076 38.8591 43.8676 38.8591C44.641 38.8591 45.2476 38.6258 45.6876 38.1591C46.1276 37.6791 46.3476 36.9991 46.3476 36.1191V30.0191H49.1676ZM58.0703 29.8591C59.3903 29.8591 60.457 30.2791 61.2703 31.1191C62.0836 31.9458 62.4903 33.1058 62.4903 34.5991V41.0991H59.6903V34.9791C59.6903 34.0991 59.4703 33.4258 59.0303 32.9591C58.5903 32.4791 57.9903 32.2391 57.2303 32.2391C56.457 32.2391 55.8436 32.4791 55.3903 32.9591C54.9503 33.4258 54.7303 34.0991 54.7303 34.9791V41.0991H51.9303V30.0191H54.7303V31.3991C55.1036 30.9191 55.577 30.5458 56.1503 30.2791C56.737 29.9991 57.377 29.8591 58.0703 29.8591ZM68.4129 32.3191V37.6791C68.4129 38.0525 68.4996 38.3258 68.6729 38.4991C68.8596 38.6591 69.1663 38.7391 69.5929 38.7391H70.8929V41.0991H69.1329C66.7729 41.0991 65.5929 39.9525 65.5929 37.6591V32.3191H64.2729V30.0191H65.5929V27.2791H68.4129V30.0191H70.8929V32.3191H68.4129ZM75.7069 31.7391C76.0669 31.1525 76.5335 30.6925 77.1069 30.3591C77.6935 30.0258 78.3602 29.8591 79.1069 29.8591V32.7991H78.3669C77.4869 32.7991 76.8202 33.0058 76.3669 33.4191C75.9269 33.8325 75.7069 34.5525 75.7069 35.5791V41.0991H72.9069V30.0191H75.7069V31.7391ZM91.5928 30.0191L84.7328 46.3391H81.7528L84.1528 40.8191L79.7128 30.0191H82.8528L85.7128 37.7591L88.6128 30.0191H91.5928Z" fill="white"/>
<path d="M57.0522 44.4791C57.2388 44.4458 57.5688 44.4358 58.0422 44.4491C58.5222 44.4625 58.8422 44.4425 59.0022 44.3891C59.0622 44.3958 59.1522 44.4025 59.2722 44.4091C59.3922 44.4158 59.4922 44.4258 59.5722 44.4391C59.6522 44.4525 59.7355 44.4691 59.8222 44.4891C59.9155 44.5091 59.9855 44.5458 60.0322 44.5991C60.0788 44.6525 60.1022 44.7191 60.1022 44.7991C60.1022 44.8991 60.0655 44.9958 59.9922 45.0891C59.9188 45.1758 59.8422 45.2425 59.7622 45.2891C59.6888 45.3358 59.5822 45.3991 59.4422 45.4791C59.3088 45.5525 59.2222 45.6025 59.1822 45.6291C59.0488 45.7091 58.6188 45.9291 57.8922 46.2891C58.1855 46.5625 58.5255 46.7991 58.9122 46.9991C59.3055 47.1925 59.7855 47.4025 60.3522 47.6291C60.6255 47.7358 60.7788 47.9458 60.8122 48.2591C60.6855 48.2725 60.5422 48.2525 60.3822 48.1991C60.2222 48.1458 60.0488 48.0725 59.8622 47.9791C59.6822 47.8791 59.5522 47.8158 59.4722 47.7891C59.3122 47.7358 58.9755 47.5558 58.4622 47.2491C57.9555 46.9358 57.6355 46.7825 57.5022 46.7891C57.3822 46.7958 57.3122 46.8691 57.2922 47.0091C57.2722 47.1425 57.2622 47.3058 57.2622 47.4991C57.2688 47.6858 57.2455 47.8225 57.1922 47.9091C57.1388 47.9158 57.0555 47.9291 56.9422 47.9491C56.9222 47.8825 56.9055 47.8158 56.8922 47.7491C56.8788 47.6758 56.8655 47.5925 56.8522 47.4991C56.8455 47.3991 56.8388 47.3225 56.8322 47.2691C56.8255 47.2158 56.8188 47.1291 56.8122 47.0091C56.8122 46.8825 56.8122 46.7991 56.8122 46.7591C56.8122 46.7191 56.8122 46.6225 56.8122 46.4691C56.8122 46.3158 56.8122 46.2258 56.8122 46.1991C56.8122 46.0791 56.8022 45.9125 56.7822 45.6991C56.7622 45.4858 56.7522 45.2991 56.7522 45.1391C56.7588 44.9791 56.7855 44.8325 56.8322 44.6991C56.8855 44.5725 56.9588 44.4991 57.0522 44.4791ZM59.3122 44.9491C58.3655 44.8225 57.7422 44.9058 57.4422 45.1991C57.4155 45.2325 57.3955 45.2691 57.3822 45.3091C57.3688 45.3425 57.3622 45.3925 57.3622 45.4591C57.3622 45.5191 57.3622 45.5658 57.3622 45.5991C57.3688 45.6325 57.3788 45.6891 57.3922 45.7691C57.4122 45.8425 57.4222 45.8858 57.4222 45.8991C57.7888 45.8258 58.1122 45.7158 58.3922 45.5691C58.6788 45.4158 58.9855 45.2091 59.3122 44.9491ZM63.502 45.7191C63.722 45.5925 63.9553 45.5125 64.202 45.4791C64.4553 45.4391 64.6753 45.4691 64.862 45.5691C65.0487 45.6691 65.142 45.8391 65.142 46.0791C65.142 46.2658 65.052 46.4491 64.872 46.6291C64.6987 46.8025 64.5087 46.9258 64.302 46.9991C64.1887 47.0458 64.0487 47.0958 63.882 47.1491C63.722 47.1958 63.5987 47.2325 63.512 47.2591C63.432 47.2858 63.3387 47.3325 63.232 47.3991C63.132 47.4658 63.042 47.5425 62.962 47.6291C63.2487 47.7025 63.562 47.7091 63.902 47.6491C64.2487 47.5825 64.5453 47.4958 64.792 47.3891C65.0387 47.2825 65.3287 47.1791 65.662 47.0791C66.002 46.9725 66.312 46.9191 66.592 46.9191C66.552 47.0991 66.452 47.2391 66.292 47.3391C66.2187 47.3858 66.072 47.4558 65.852 47.5491C65.632 47.6425 65.3353 47.7625 64.962 47.9091C64.5887 48.0491 64.392 48.1225 64.372 48.1291C64.1653 48.2158 63.9553 48.2791 63.742 48.3191C63.5287 48.3525 63.3153 48.3558 63.102 48.3291C62.8887 48.2958 62.712 48.2191 62.572 48.0991C62.5453 48.0858 62.492 48.0358 62.412 47.9491C62.332 47.8625 62.2653 47.8158 62.212 47.8091C62.1653 47.8091 62.0553 47.8325 61.882 47.8791C61.7153 47.9191 61.5953 47.9425 61.522 47.9491C61.422 47.9558 61.3453 47.9225 61.292 47.8491C61.2387 47.7758 61.212 47.6925 61.212 47.5991C61.212 47.5191 61.242 47.4658 61.302 47.4391C61.362 47.4058 61.4287 47.3925 61.502 47.3991C61.582 47.3991 61.6687 47.3991 61.762 47.3991C61.862 47.3925 61.942 47.3725 62.002 47.3391C62.1687 47.2925 62.2753 47.2425 62.322 47.1891C62.3687 47.1291 62.4353 46.9858 62.522 46.7591C62.5553 46.6591 62.5887 46.5725 62.622 46.4991C62.662 46.4191 62.7087 46.3458 62.762 46.2791C62.822 46.2125 62.8653 46.1625 62.892 46.1291C62.9187 46.0958 62.9787 46.0491 63.072 45.9891C63.1653 45.9291 63.2253 45.8891 63.252 45.8691C63.2853 45.8491 63.3687 45.7991 63.502 45.7191ZM63.042 46.8391C63.282 46.8525 63.5087 46.8191 63.722 46.7391C63.9353 46.6591 64.1053 46.5691 64.232 46.4691C64.3587 46.3691 64.5153 46.2291 64.702 46.0491C64.3353 46.0025 64.0087 46.0558 63.722 46.2091C63.4353 46.3625 63.2087 46.5725 63.042 46.8391ZM67.3382 46.6091C67.5782 46.6425 67.7682 46.6591 67.9082 46.6591C68.0549 46.6591 68.2682 46.6491 68.5482 46.6291C68.8349 46.6091 69.0449 46.5991 69.1782 46.5991C69.4715 46.5991 69.6815 46.6491 69.8082 46.7491C69.9415 46.8491 69.9615 47.0125 69.8682 47.2391C69.8149 47.3525 69.7249 47.4625 69.5982 47.5691C69.4715 47.6758 69.3449 47.7591 69.2182 47.8191C69.0982 47.8791 68.9382 47.9525 68.7382 48.0391C68.5449 48.1258 68.4049 48.1925 68.3182 48.2391C68.1782 48.3125 68.0549 48.3525 67.9482 48.3591C67.8415 48.3591 67.7182 48.3258 67.5782 48.2591C67.5915 48.2125 67.6249 48.1558 67.6782 48.0891C67.7382 48.0225 67.8082 47.9558 67.8882 47.8891C67.9749 47.8225 68.0649 47.7558 68.1582 47.6891C68.2582 47.6158 68.3549 47.5491 68.4482 47.4891C68.5415 47.4291 68.6249 47.3758 68.6982 47.3291C68.7715 47.2825 68.8282 47.2425 68.8682 47.2091C68.9082 47.1758 68.9249 47.1591 68.9182 47.1591C68.8049 47.1325 68.5215 47.1491 68.0682 47.2091C67.6215 47.2691 67.3649 47.2991 67.2982 47.2991C67.0249 47.2991 66.8249 47.2425 66.6982 47.1291C66.5782 47.0091 66.5549 46.8358 66.6282 46.6091C66.6882 46.4025 66.8249 46.2058 67.0382 46.0191C67.0582 45.9925 67.2682 45.8558 67.6682 45.6091C68.0682 45.3625 68.3882 45.1725 68.6282 45.0391C68.7682 44.9591 68.8815 44.9025 68.9682 44.8691C69.0615 44.8358 69.1582 44.8225 69.2582 44.8291C69.3582 44.8358 69.4549 44.8758 69.5482 44.9491C69.7015 45.0625 69.7615 45.1691 69.7282 45.2691C69.6949 45.3691 69.5715 45.4458 69.3582 45.4991C68.6182 45.7058 67.9449 46.0758 67.3382 46.6091ZM71.1657 48.2991C70.819 48.2858 70.6457 48.0891 70.6457 47.7091C70.6457 47.6158 70.6524 47.4458 70.6657 47.1991C70.679 46.9458 70.6824 46.7225 70.6757 46.5291C70.6757 46.3358 70.6657 46.1825 70.6457 46.0691C70.6257 45.9825 70.5457 45.8625 70.4057 45.7091C70.2657 45.5491 70.2057 45.4258 70.2257 45.3391C70.239 45.2925 70.2957 45.2391 70.3957 45.1791C70.5024 45.1125 70.5557 45.0358 70.5557 44.9491C70.5824 44.8158 70.569 44.5825 70.5157 44.2491C70.469 43.9091 70.4757 43.6958 70.5357 43.6091C70.569 43.5491 70.6324 43.5191 70.7257 43.5191C70.9324 43.5191 71.0557 43.7291 71.0957 44.1491C71.1224 44.5758 71.1557 44.8125 71.1957 44.8591C71.2357 44.9125 71.3024 44.9558 71.3957 44.9891C71.489 45.0225 71.6124 45.0491 71.7657 45.0691C71.919 45.0891 72.0457 45.1058 72.1457 45.1191C72.2524 45.1325 72.4024 45.1458 72.5957 45.1591C72.789 45.1725 72.9057 45.1791 72.9457 45.1791C72.3124 45.3658 71.9424 45.4725 71.8357 45.4991C71.5424 45.5591 71.3657 45.6125 71.3057 45.6591C71.1857 45.7458 71.1257 45.9025 71.1257 46.1291C71.1257 46.4958 71.139 46.7958 71.1657 47.0291C71.199 47.2558 71.2624 47.4825 71.3557 47.7091C71.449 47.6825 71.5357 47.6591 71.6157 47.6391C71.6957 47.6125 71.749 47.5958 71.7757 47.5891C71.809 47.5758 71.8524 47.5658 71.9057 47.5591C71.9657 47.5525 72.0457 47.5491 72.1457 47.5491C72.119 47.7358 72.0024 47.9091 71.7957 48.0691C71.589 48.2225 71.379 48.2991 71.1657 48.2991ZM73.3925 48.1491C73.1725 48.2958 72.9925 48.3325 72.8525 48.2591C72.7125 48.1791 72.6425 47.9891 72.6425 47.6891C72.6425 47.3025 72.8691 46.8258 73.3225 46.2591C73.7758 45.6858 74.1791 45.2991 74.5325 45.0991C74.7191 44.9991 74.8458 44.9425 74.9125 44.9291C74.9791 44.9091 75.1158 44.9158 75.3225 44.9491C75.7358 45.0025 75.9358 45.2791 75.9225 45.7791C75.9091 46.0458 75.8425 46.2991 75.7225 46.5391C75.6025 46.7725 75.4391 46.9758 75.2325 47.1491C75.0258 47.3225 74.8058 47.4758 74.5725 47.6091C74.3458 47.7358 74.0958 47.8491 73.8225 47.9491C73.8225 47.9491 73.7991 47.9591 73.7525 47.9791C73.7125 47.9925 73.6591 48.0158 73.5925 48.0491C73.5325 48.0758 73.4658 48.1091 73.3925 48.1491ZM73.1125 47.6291C73.3925 47.6491 73.7225 47.5658 74.1025 47.3791C74.4891 47.1925 74.8225 46.9491 75.1025 46.6491C75.3825 46.3491 75.5091 46.0691 75.4825 45.8091C75.4691 45.6891 75.4458 45.6025 75.4125 45.5491C75.3858 45.4891 75.3291 45.4591 75.2425 45.4591C75.1491 45.4591 75.0425 45.4925 74.9225 45.5591C74.8091 45.6258 74.6691 45.7191 74.5025 45.8391C74.3358 45.9591 74.2391 46.0291 74.2125 46.0491C74.0191 46.1758 73.8058 46.4091 73.5725 46.7491C73.3391 47.0825 73.1858 47.3758 73.1125 47.6291Z" fill="white"/>
</svg>
